<?xml version="1.0" encoding="utf-8"?>
<!-- Generator: Adobe Illustrator 19.0.0, SVG Export Plug-In . SVG Version: 6.00 Build 0)  -->
<svg version="1.1" id="Layer_1" xmlns="http://www.w3.org/2000/svg" xmlns:xlink="http://www.w3.org/1999/xlink" x="0px" y="0px"
	 viewBox="0 0 283.5 283.5" style="enable-background:new 0 0 283.5 283.5;" xml:space="preserve">
<style type="text/css">
	.st0{fill:#FFFFFF;}
	.st1{fill:#EC0C6E;}
</style>
<g id="Layer_9">
	<g id="XMLID_2250_">
		<path id="XMLID_2255_" class="st0" d="M141.7,276.4c74.4,0,134.6-60.3,134.6-134.6S216,7.1,141.7,7.1C67.3,7.1,7.1,67.4,7.1,141.7
			S67.3,276.4,141.7,276.4z M141.7,14.3c70.4,0,127.5,57.1,127.5,127.5s-57.1,127.4-127.5,127.4S14.2,212.1,14.2,141.7
			S71.2,14.3,141.7,14.3z"/>
		<path id="XMLID_2249_" class="st1" d="M269.2,141.7c0,35.2-14.3,67.1-37.3,90.1l5.1,5.1c24.4-24.4,39.4-58,39.4-95.2H269.2z"/>
		<path id="XMLID_2252_" class="st1" d="M236.9,236.9c-1.4,1.4-3.7,1.4-5.1,0c-1.4-1.4-1.4-3.7,0-5.1"/>
		<path id="XMLID_2251_" class="st1" d="M269.2,141.7c0-2,1.6-3.6,3.6-3.6s3.6,1.6,3.6,3.6"/>
	</g>
</g>
</svg>
